<?xml version="1.0" encoding="UTF-8" standalone="no"?>
<!-- Created with Inkscape (http://www.inkscape.org/) -->

<svg
   xmlns:dc="http://purl.org/dc/elements/1.1/"
   xmlns:cc="http://creativecommons.org/ns#"
   xmlns:rdf="http://www.w3.org/1999/02/22-rdf-syntax-ns#"
   xmlns:svg="http://www.w3.org/2000/svg"
   xmlns="http://www.w3.org/2000/svg"
   xmlns:sodipodi="http://sodipodi.sourceforge.net/DTD/sodipodi-0.dtd"
   xmlns:inkscape="http://www.inkscape.org/namespaces/inkscape"
   width="179.31892mm"
   height="179.04626mm"
   viewBox="0 0 635.38201 634.4159"
   id="svg2"
   version="1.1"
   inkscape:version="0.91 r13725"
   sodipodi:docname="mantis.svg">
  <defs
     id="defs4" />
  <sodipodi:namedview
     id="base"
     pagecolor="#ffffff"
     bordercolor="#666666"
     borderopacity="1.0"
     inkscape:pageopacity="0.0"
     inkscape:pageshadow="2"
     inkscape:zoom="0.7"
     inkscape:cx="242.02409"
     inkscape:cy="354.0311"
     inkscape:document-units="px"
     inkscape:current-layer="layer1"
     showgrid="false"
     fit-margin-top="10"
     fit-margin-left="10"
     fit-margin-right="10"
     fit-margin-bottom="10"
     inkscape:window-width="2560"
     inkscape:window-height="1315"
     inkscape:window-x="0"
     inkscape:window-y="1"
     inkscape:window-maximized="1" />
  <metadata
     id="metadata7">
    <rdf:RDF>
      <cc:Work
         rdf:about="">
        <dc:format>image/svg+xml</dc:format>
        <dc:type
           rdf:resource="http://purl.org/dc/dcmitype/StillImage" />
        <dc:title />
      </cc:Work>
    </rdf:RDF>
  </metadata>
  <g
     inkscape:label="Layer 1"
     inkscape:groupmode="layer"
     id="layer1"
     transform="translate(-48.674512,-167.22444)">
    <path
       style="fill:#ffcb05;fill-opacity:1;stroke:#00274c;stroke-opacity:1;stroke-width:2;stroke-miterlimit:4;stroke-dasharray:none;stroke-linecap:round;stroke-linejoin:round"
       d="M 587.74727,763.25942 C 516.32379,749.74111 461.43573,700.32925 425.60051,617.29016 c -12.18261,-28.23013 -13.31063,-34.58178 -2.44602,-13.77304 30.58552,58.57977 81.76507,109.46305 133.26822,132.49675 23.70653,10.60224 25.5668,9.83848 8.05488,-3.3071 -8.86037,-6.65117 -19.73447,-16.38474 -24.16466,-21.63015 -8.05489,-9.53712 -8.05489,-9.53712 0,-2.48186 28.18849,24.69027 61.95633,43.06284 93.76738,51.0174 7.00487,1.75162 13.50135,3.99047 14.43661,4.97524 2.64019,2.77993 -44.50943,1.74958 -60.76965,-1.32798 z M 486.516,732.79279 C 412.10449,676.04214 367.93911,559.55765 391.05773,481.02533 c 3.66336,-12.44417 4.06314,-11.49406 2.37478,5.64386 -7.63373,77.48721 23.34542,161.22607 85.48999,231.08549 12.99835,14.61203 23.42576,26.56732 23.172,26.56732 -0.25375,0 -7.26408,-5.18815 -15.5785,-11.52921 z m -57.44454,-30.07621 c -72.76853,-86.03695 -87.50034,-167.4657 -47.24848,-261.16169 17.4572,-40.63588 21.25458,-53.67515 21.42981,-73.58471 0.1679,-19.07374 -2.95523,-22.77485 -6.06439,-7.18673 -4.59407,23.03276 -14.91477,42.39622 -41.57944,78.01028 -33.05073,44.14344 -34.79692,44.62667 -95.42711,26.40839 -46.45175,-13.95793 -50.58562,-14.90404 -53.0514,-12.14194 -1.51285,1.69465 -2.9931,0.16201 -5.81367,-6.01952 -5.10835,-11.1953 -8.69153,-12.42034 -6.14702,-2.10158 7.27569,29.50524 -5.61238,51.3882 -39.31333,66.75102 -24.11575,10.99334 -26.67524,10.43855 -15.18917,-3.29242 12.75568,-15.24871 34.93895,-52.89696 39.19828,-66.52521 6.96622,-22.28925 30.53285,-22.54502 100.75865,-1.09353 24.76072,7.56352 31.31471,8.17291 40.69289,3.78357 8.63531,-4.04164 8.65113,-4.02119 3.14535,4.06473 -6.97654,10.24588 -3.95293,10.89172 7.80148,1.66635 32.14174,-25.22624 65.67733,-96.78419 59.97397,-127.97199 -1.83745,-10.04774 -1.83745,-10.04774 4.22926,-2.18619 21.52141,27.88847 21.47627,50.03158 -0.22727,111.44827 -34.42274,97.40953 -24.95014,176.82672 31.62229,265.11766 9.92231,15.48546 10.1416,16.57622 1.2093,6.01524 z m -56.82363,-50.56102 c -47.18934,-63.51798 -50.41865,-140.56812 -8.12836,-193.93954 6.05239,-7.63827 6.05239,-7.63827 0.6695,3.73635 -25.19042,53.22998 -22.50521,114.95626 7.88787,181.32243 5.25015,11.46418 9.30117,20.84399 9.00228,20.84399 -0.29889,0 -4.54297,-5.38346 -9.43129,-11.96323 z m -51.88468,-76.61193 c -6.68496,-41.68843 -0.61967,-72.02421 19.98677,-99.96472 12.24585,-16.60427 22.90893,-25.50191 12.82172,-10.69889 -11.19765,16.4326 -20.13077,39.22344 -26.22358,66.90347 -1.09233,4.96258 -2.46555,20.30144 -3.05159,34.08637 -1.0655,25.0635 -1.0655,25.0635 -3.53332,9.67377 z M 85.615925,423.90527 c 20.194285,-15.51044 35.880575,-32.45652 57.780645,-62.42113 27.24632,-37.27959 80.88441,-30.23773 138.59458,18.19534 12.69624,10.65528 17.60115,12.92725 25.62504,11.86963 5.48885,-0.72348 28.21432,-13.9167 42.49876,-24.67256 19.44332,-14.64038 17.44836,-11.90371 -9.92548,13.61562 -49.23323,45.89781 -45.52125,45.04321 -86.27253,19.86211 -49.79255,-30.76789 -60.13315,-34.727 -73.88756,-28.28941 -6.56142,3.07099 -6.66132,3.04877 -6.66132,-1.48188 0,-2.5298 -1.65294,-6.27529 -3.67321,-8.32332 -3.64103,-3.69106 -3.65681,-3.67538 -1.80173,1.79023 4.41908,13.01981 -14.93342,41.80177 -34.68863,51.59059 -17.87796,8.85862 -57.268643,15.69965 -47.588565,8.26478 z M 324.86234,323.10962 c -7.79562,-6.86894 -3.37449,-23.91543 6.20263,-23.91543 0.81746,0 4.2385,2.70686 7.60231,6.01524 9.98958,9.82499 12.56782,4.03999 2.76912,-6.21332 -6.47094,-6.77119 -11.46355,-7.28059 -17.71044,-1.807 -6.09447,5.34004 -8.40173,4.99838 -11.495,-1.7022 -10.39092,-22.50851 -5.6589,-42.91392 11.20837,-48.33272 5.66977,-1.82148 8.09715,0.43486 2.88029,2.67733 -4.21672,1.81256 -10.04323,18.34552 -9.41123,26.70473 0.55955,7.40089 5.01913,12.07559 5.03758,5.28058 0.0374,-13.76526 8.83172,-29.17314 19.59617,-34.33288 6.34848,-3.04303 6.34848,-3.04303 -8.244,-10.63807 -8.02587,-4.17727 -15.87939,-9.65313 -17.45226,-12.16857 -5.93094,-9.48517 -1.96684,-10.41229 7.73128,-1.80819 7.47911,6.63541 30.85938,20.53641 32.13574,19.10666 0.45843,-0.51351 -5.02546,-7.70217 -12.18642,-15.97479 -8.83327,-10.20453 -12.67116,-16.05925 -11.9353,-18.20734 0.59657,-1.74142 1.08466,-3.54356 1.08466,-4.00476 0,-3.27764 3.97932,0.75153 9.56827,9.68812 3.62087,5.78967 10.92621,15.8895 16.23407,22.44408 9.65069,11.9174 9.65069,11.9174 5.07898,18.63152 -5.41163,7.94762 -7.21943,22.71911 -3.8684,31.60856 2.24504,5.95555 2.27907,5.89585 3.42848,-6.01524 2.5636,-26.56564 17.94216,-37.43424 31.49173,-22.25639 17.48113,19.58186 -4.12693,49.21754 -47.52045,65.17479 -14.19479,5.2199 -16.34849,5.22429 -22.22618,0.0453 z"
       id="path4217"
       inkscape:connector-curvature="0" />
  </g>
</svg>
