<?xml version="1.0" encoding="UTF-8" standalone="no"?>
<svg
   xmlns:dc="http://purl.org/dc/elements/1.1/"
   xmlns:cc="http://creativecommons.org/ns#"
   xmlns:rdf="http://www.w3.org/1999/02/22-rdf-syntax-ns#"
   xmlns:svg="http://www.w3.org/2000/svg"
   xmlns="http://www.w3.org/2000/svg"
   xmlns:sodipodi="http://sodipodi.sourceforge.net/DTD/sodipodi-0.dtd"
   xmlns:inkscape="http://www.inkscape.org/namespaces/inkscape"
   width="1093.1595"
   height="1130.2214"
   id="svg2"
   sodipodi:version="0.32"
   inkscape:version="0.91 r13725"
   sodipodi:docname="michigan.svg"
   version="1.0">
  <metadata
     id="metadata513">
    <rdf:RDF>
      <cc:Work
         rdf:about="">
        <dc:format>image/svg+xml</dc:format>
        <dc:type
           rdf:resource="http://purl.org/dc/dcmitype/StillImage" />
        <dc:title></dc:title>
      </cc:Work>
    </rdf:RDF>
  </metadata>
  <sodipodi:namedview
     inkscape:cy="451.4991"
     inkscape:cx="668.66392"
     inkscape:zoom="0.78613282"
     inkscape:window-height="1315"
     inkscape:window-width="2560"
     inkscape:pageshadow="2"
     inkscape:pageopacity="0.0"
     borderopacity="1.0"
     bordercolor="#666666"
     pagecolor="#ffffff"
     id="base"
     inkscape:window-x="0"
     inkscape:window-y="1"
     inkscape:current-layer="g9523"
     showgrid="false"
     inkscape:window-maximized="1"
     fit-margin-top="10"
     fit-margin-left="10"
     fit-margin-right="10"
     fit-margin-bottom="10" />
  <defs
     id="defs4">
    <inkscape:perspective
       sodipodi:type="inkscape:persp3d"
       inkscape:vp_x="0 : 228.5 : 1"
       inkscape:vp_y="0 : 1000 : 0"
       inkscape:vp_z="685 : 228.5 : 1"
       inkscape:persp3d-origin="342.5 : 152.33333 : 1"
       id="perspective188" />
    <marker
       id="ArrowEnd"
       viewBox="0 0 10 10"
       refX="0"
       refY="5"
       markerUnits="strokeWidth"
       markerWidth="4"
       markerHeight="3"
       orient="auto">
      <path
         d="M 0,0 10,5 0,10 0,0 Z"
         id="path7"
         inkscape:connector-curvature="0" />
    </marker>
    <marker
       id="ArrowStart"
       viewBox="0 0 10 10"
       refX="10"
       refY="5"
       markerUnits="strokeWidth"
       markerWidth="4"
       markerHeight="3"
       orient="auto">
      <path
         d="M 10,0 0,5 10,10 10,0 Z"
         id="path10"
         inkscape:connector-curvature="0" />
    </marker>
  </defs>
  <g
     id="g9523"
     transform="translate(377.5936,513.03125)">
    <path
       style="fill:#000000;stroke:none"
       d="m -2513.438,2322.123 0,0 0,0 z"
       id="path14"
       inkscape:connector-curvature="0" />
    <path
       id="path4419"
       style="fill:#ffcb05;fill-opacity:1;stroke:#00274c;stroke-opacity:1;stroke-width:3;stroke-miterlimit:4;stroke-dasharray:none;stroke-linejoin:round;stroke-linecap:round"
       d="m 428.6875,-164.59375 -0.40625,0.0937 -0.1875,0.15625 -0.375,0.1875 -0.0625,0.0937 0,0.40625 0.0625,0.0937 0.4375,0.28125 0.25,-0.0937 0.46875,-0.0937 0.15625,-0.40625 0,-0.28125 -0.15625,-0.15625 -0.1875,-0.28125 z m -159.8125,-3.5 c -0.51094,0.57427 -0.21216,1.39466 -0.31245,2.09375 -0.0886,0.5631 0.4397,0.82833 0.55835,1.30339 0.30288,0.7019 0.11002,1.44843 -0.23522,2.09812 -0.0512,0.64995 -0.74014,0.51074 -1.05687,0.92593 0.22231,0.54955 0.23137,1.24087 0.23881,1.84469 -0.21283,0.68961 -0.23094,1.46524 -0.80354,1.97876 -0.3417,0.514 -0.73683,0.96624 -1.32744,1.19255 -0.77571,0.32223 -1.03728,1.20609 -1.54368,1.8199 -0.29554,0.5493 -0.75712,1.03069 -1.01931,1.57552 -0.0532,0.61635 0.0627,1.30805 -0.0904,1.87986 -0.71354,0.28156 0.0126,0.81284 -0.0258,1.2241 -0.44474,0.32853 -0.55495,0.78488 -0.47616,1.31343 0.15322,0.91971 0.36779,1.82715 0.66157,2.70745 0.067,0.50793 0.10366,0.99641 -0.2502,1.40218 -0.1643,0.49139 -0.25458,1.01788 -0.70392,1.33043 -0.41996,0.62889 -1.18085,1.01839 -1.58173,1.61131 0.0102,1.15996 0.0203,2.31992 0.0305,3.47988 -0.60775,-0.0451 -0.65081,0.66302 -0.788,1.10435 -0.42713,0.61696 0.43614,0.78138 0.48338,1.24668 -0.19423,0.5343 -0.0116,0.99249 0.32345,1.41989 0.28143,0.38015 0.39307,1.06686 1.00806,0.84469 0.94592,-0.0337 1.96948,-0.0589 2.80274,0.43757 0.72485,0.20882 1.5041,0.30762 2.04769,0.88314 0.61322,0.5253 1.50418,0.45351 2.25299,0.67348 0.55289,0.28895 0.78519,-0.49403 1.33235,-0.46251 0.85917,-0.1402 1.60021,-0.60475 2.38109,-0.95989 0.29172,-0.79263 0.26166,-1.75045 0.91752,-2.35616 0.37021,-0.5876 1.17392,-0.55916 1.75029,-0.8538 0.54228,-0.075 0.87026,-0.44291 1.14257,-0.88689 0.34629,-0.38088 0.53509,-1.00225 1.14041,-0.98759 0.51191,-0.10554 1.02234,-0.39346 1.11194,-0.95085 0.4497,-1.53582 0.67092,-3.16513 0.56829,-4.76215 -0.17111,-0.70783 -0.64054,-1.39708 -0.35301,-2.13346 0.13624,-0.50573 0.22462,-1.005 -0.13004,-1.44456 -0.14435,-0.53474 -0.60396,-0.86041 -0.8631,-1.31021 -0.31586,-0.95648 -0.79845,-1.86411 -1.12727,-2.80319 0.0387,-0.88545 -0.10209,-1.80503 0.34891,-2.61211 0.14349,-0.62714 0.58515,-1.0889 0.96214,-1.58653 0.0791,-1.1842 -0.24588,-2.33537 -0.40625,-3.5 -0.39975,-0.30074 -0.5716,-0.83785 -0.63007,-1.29708 0.0876,-0.44749 0.64097,-1.17622 -0.0345,-1.39339 -0.67083,-0.39837 -1.30303,-0.92529 -1.67917,-1.62198 -0.62925,0.31214 -0.86023,-0.20581 -0.50339,-0.71032 0.19761,-0.49736 0.6649,-0.67406 1.12839,-0.85223 0.6393,-0.0933 0.43762,1.10859 0.9831,0.6647 0.4253,-0.2128 0.99978,-0.53047 0.95435,-1.07095 -0.47301,-0.43668 -0.71956,-1.15768 -1.41853,-1.26015 -0.79589,-0.17607 -1.46268,0.53653 -2.26165,0.542 -0.681,0.12784 -1.38067,-0.0552 -2.06982,-0.0631 -0.56075,-0.10925 -0.49406,-0.8208 -0.90732,-1.01932 -0.85192,-0.18853 -1.64761,-0.74247 -2.53008,-0.69933 z M 374.28125,-173 c -2.81516,0.7938 0.68681,10.82108 -5.9375,6.6875 -3.59735,3.04337 -7.98718,-2.49226 -11.53125,1.0625 -1.77851,-3.88303 -19.08015,-2.17275 -11.40625,-1.4063 7.38436,0.7891 9.15261,11.42254 0.5,14.0312 -2.09151,7.55651 -13.20927,7.34829 -14.8124,16.1875 -6.47766,9.12456 -0.0262,23.4434 7.625,30.375 7.52417,3.70524 5.51089,2.37482 11.17772,2.21392 13.23292,1.39519 -0.5389,12.840408 -7.36512,10.31733 -8.00097,3.864271 -16.26394,-3.204176 -24.0312,1.71875 -4.93258,1.34925 -7.89312,5.957057 -11.5625,9.03125 -5.51994,-3.754655 -7.70275,6.261061 -12.09365,7.375 -7.49949,11.680256 1.36173,25.223266 -0.8122,37.625 -2.71359,10.537681 0.80625,25.027212 -6.93745,35.15625 -2.39778,7.4615708 -6.04765,13.867101 -11.53125,19.125 4.26964,8.834326 -13.99442,11.187239 -7.2499,2.0625 C 266.09494,8.9725131 279.81487,7.0065167 277.5625,-2 c 1.67022,-3.8356843 -2.02239,-13.759027 3.87505,-13.15625 -0.61635,-13.63281 -10.47723,1.54307 -10.0625,7.46875 -7.76077,8.26815869 1.29928,1.8962776 0.75,5.9375 -2.45728,7.4300201 -7.66519,15.658211 -9.12505,23.34375 -8.63536,1.481315 -2.93873,-8.970441 -6.6564,-13.5 -0.60803,-6.0243948 0.92334,-15.0090926 6.3124,-17.15625 -0.58681,-5.43724 2.59476,-17.299599 -4.2502,-7.46875 -3.96544,-4.976544 6.24407,-11.839852 6.9375,-16.9375 5.66068,5.20485 -3.22094,-8.850177 -3.65625,-12.34375 -0.0197,-10.602445 5.48033,-5.389675 6.90675,-4.40625 2.58661,-2.961695 6.86602,-18.044818 -0.4376,-9.9375 -7.34174,2.460279 -11.86619,4.877092 -15.08321,14.018169 -0.38645,9.709904 -11.65323,11.925107 -14.47929,20.388081 4.00447,8.873692 -10.84735,20.6268915 -15.6563,9.5 -9.71253,-7.087438 -6.59786,15.60920765 -16.43745,11.1875 -8.48143,-9.204872 -9.55026,8.7168816 -7.15625,14.59375 -2.08243,7.152156 0.13141,21.67297 -11.93745,17.90625 -7.87407,3.615262 -19.56463,7.551818 -12.56245,18.71875 5.67478,8.703482 1.40009,19.281016 -0.0626,27.9375 4.12998,-3.174741 -4.35674,5.59193 -1.03115,12.6875 -1.36356,15.91993 -11.52892,28.62041 -18,42.4375 -4.2949,10.12753 -11.08776,18.47175 -19.96875,25.25 1.1991,7.88083 7.42824,18.33485 10.65625,22.96875 1.46842,2.80546 -6.42293,-7.44946 -1.50005,6.75005 3.24653,12.89294 3.19403,28.10586 -8.0625,37.62495 -12.91306,13.02652 0.63846,28.895 4.2186,42.625 2.85786,16.91416 9.08537,33.35564 16.4688,48.5625 0.66178,-5.62555 8.47043,-0.25481 12.9062,-5.50005 4.38054,-3.42017 8.99771,-2.01661 1.1249,-0.4063 -0.59265,4.46466 -5.81908,9.45544 -11.43745,8.2813 -4.51432,-5.08917 5.3387,14.23087 6.57581,18.79641 8.70228,27.78118 9.15397,57.91008 6.34264,86.57641 -3.69967,16.81389 -2.98478,35.19606 -10.41992,51.5322 -5.15249,20.09262 -16.09969,37.94787 -29.65468,53.40748 -9.35612,16.05137 -11.50171,36.93251 -26.9507,49.07932 -2.92781,6.64732 -29.468316,17.58401 -16.500927,17.31739 94.062637,1.88313 188.149137,2.97396 282.232977,2.85329 -5.44613,17.75066 11.9443,10.90168 22.89481,11.18421 55.55642,-2.35803 111.89832,-3.06087 166.85519,-8.49671 0.75541,-4.81682 4.84498,-2.86093 3.37495,-9.0626 1.09549,-7.72843 4.22151,13.43997 4.5625,6.65625 -4.6555,-7.68673 -1.86681,-13.45324 3.375,-18.75 4.45606,-4.57643 4.66277,-11.3216 8.15635,-7.78115 0.75809,-3.38522 3.39881,-16.13197 10.6875,-9.62495 4.71306,-4.04708 -3.72118,-10.252 3.28125,-8.53125 6.55174,-4.74152 4.06889,-9.36912 7.18496,-13.41796 -2.26929,-5.7514 -0.85659,-6.35566 -0.62256,-9.45704 0.63503,-8.47382 6.94604,-17.89412 5.4687,-27.125 5.75769,-3.13613 3.15746,-9.67976 9.4062,-14.03125 7.2876,-3.55991 12.50541,-9.73548 20.59375,-9.1875 5.59837,-6.30019 10.72112,-15.8554 6.0313,-23.75 -0.67603,-7.73551 5.39527,-20.11318 13.6561,-16.5625 4.5707,-7.42977 -9.01264,-6.80374 -3.9375,-15.03125 6.67503,-0.46149 10.98974,-10.10488 18.09375,-8.1875 5.81542,2.89541 10.70705,4.61014 5.0313,10.5312 6.76588,-1.1238 16.25207,8.17876 18.53125,-1.65625 -1.11045,-10.13471 5.27106,-19.01506 5.0311,-28.25 -3.61042,-7.84788 0.0753,-16.14399 -0.21885,-24.34375 0.9994,-5.94599 9.36312,-10.31985 5.1876,-16.53125 -0.34839,-10.27629 -10.7147,-18.87499 -10.65625,-29.84375 -8.57295,-21.60324 -2.18717,-46.75069 -12.59375,-66.96875 -4.85561,-16.961 -5.74546,-34.76355 -7.46875,-52 -2.95758,-8.09059 -4.89387,-15.20797 -10.24965,-22.5312 -2.59864,-7.04687 -5.84628,-16.076 -12.5938,-20.31245 -4.77788,-5.74144 -15.43608,-5.70954 -21.4687,-10.9374 -5.35549,1.69935 -13.47163,2.29281 -15.53125,9.03135 -3.52947,6.52746 -14.25131,4.27253 -20.73389,7.7207 -11.84618,-2.80091 -8.98178,9.20709 -16.23981,12.96186 -17.43802,3.6558 -7.27311,-1.50386 -1.9012,6.97344 -6.08416,4.76002 -8.35804,8.3704 -11.06245,14.09375 -2.66759,7.82352 -8.23668,13.63808 -10.68745,21.3125 -4.61019,-0.21317 -4.99211,-8.12983 -8.09375,1.62505 -6.10151,5.44521 -10.02517,15.86736 -17.78145,20.43745 -7.12335,-3.99153 -10.74532,-9.13972 -19.9687,-8.87475 -8.25769,-3.34823 -16.18683,-9.40816 -17.2188,-19.4374 -1.26744,-2.22858 1.44713,-3.32599 0.59355,-5.34375 1.07345,-2.09705 3.42137,-5.92903 2.1562,-14.75 5.39793,-1.20913 -1.25913,-2.89928 1.34365,-9.62495 -0.13242,-6.10785 4.37375,-6.20622 4.75005,-12.6875 3.24254,-1.74452 6.21435,-11.81833 9.96875,-5.875 0.36932,-1.05648 4.63735,2.04978 6.81245,-0.25 1.39828,-2.53813 4.06418,-3.11043 8.68745,0.0311 3.10063,-1.0478 -0.56559,-8.04802 3.65615,-10.9063 13.08197,-1.64104 8.20685,-1.53604 13.375,-11.625 -0.73575,-10.73799 -0.34002,-24.03287 7.5,-32.15625 11.68025,-6.98645 3.79793,10.98944 9.6875,1.49985 1.97457,-7.99612 10.12814,-11.95603 13.688,-14.2501 0.21767,-13.870321 1.75088,-27.841111 2.38545,-41.653603 C 570.23417,46.660094 584.42893,34.801366 576,23.90625 c 0.74799,-7.688388 -0.13311,-15.3979204 -3.75,-22.0625 3.28149,-7.9826138 -11.50375,-3.9177544 -11.875,-11.625 -8.80638,-2.303827 -3.81037,-21.616178 -6.6875,-17.0625 6.58483,3.025812 -5.71506,-5.298595 2.7499,-8.96875 8.05148,-8.615632 8.42522,2.712396 16.6875,4.15625 12.89963,4.53132 -0.35367,-2.497553 -0.6932,-6.71446 -3.56686,-4.62775 2.41083,-2.560905 -0.1505,-8.09804 -1.17001,-4.893758 -1.58083,-5.608209 -5.5624,-9.40625 -3.36865,-4.868441 -6.87379,-12.712947 -9.1875,-17.03125 -1.478,-4.699328 4.51951,3.305043 4.68755,-3.6875 -4.11569,-2.255388 -7.48804,-6.729203 -11.15625,-9.21875 -2.93987,-3.047602 -1.69228,-2.26581 -3.99995,-7.59375 1.65582,8.710613 -7.39781,-3.608064 -10.50015,2.625 -2.88767,-0.913865 -3.30004,-1.473099 -7.46865,-2.875 -5.53612,-1.195016 -11.91156,-12.39131 -15.40625,-7.53125 -8.37924,-0.50971 -2.07316,-2.91207 -9.0625,-2.37495 -7.92626,-4.61135 -13.59988,-17.89973 -25.09385,-13.46875 -5.78741,-3.04928 -13.01096,4.07214 -16.84375,-4.50005 0.63438,-10.15622 -7.18832,-16.4631 -13.62495,-23.125 -8.82549,-3.80857 -17.44241,-3.67551 -26.15625,-5.625 -5.37385,-1.21892 3.29349,7.05389 -4.31255,2.71875 -7.59183,1.15759 -12.69358,-11.37331 -20.86459,-13.19347 -6.44438,-4.0926 -15.29161,-6.07852 -17.60426,-12.05653 -1.96114,2.28572 -3.64452,-0.84758 -5.84365,-0.1875 z m 26.5625,-6.0625 -0.78125,0.4375 -0.96875,1.1875 0.59375,0.96875 0.78125,0.375 2.40625,1.4375 2.09375,1.5 1.09375,1.9375 2.21875,3.09375 1.46875,0.96875 0.4375,0.8125 0.46875,1.9375 1.125,1.21875 2.0625,0.90625 1.21875,-0.15625 2.34375,1 2.53125,-0.0312 0.78125,0.78125 1.5625,0.625 2.4375,-0.9375 1,-0.9375 -0.28125,-0.9375 0.46875,-1.3125 2.375,-1.03125 0.625,-0.6875 0.1875,-1.46875 1.4375,-2.6875 -0.4375,-0.71875 -3.28125,-1.25 -0.78125,-0.53125 -1.0625,0.5 -0.6875,-0.625 -0.75,-1.84375 -1.6875,-2.90625 -0.625,-0.25 -0.0625,0.40625 0.75,1.53125 -0.125,1.875 -1.21875,0.78125 -1.0625,-0.1875 -0.9375,-0.625 -4.59375,-1.96875 -3.5625,-1.71875 -0.9375,0.15625 -2.625,0.59375 -1.75,-0.3125 -4.25,-1.90625 z m 115.9375,-55.7813 c -1.29559,0.97407 -3.71486,0.61381 -2.83949,2.77935 -2.34955,0.88323 1.56668,1.78505 2.39999,2.44732 1.2684,0.43796 4.31731,0.29065 4.38699,1.25515 -0.49368,0.39601 -0.0502,1.13199 -0.0941,1.59139 1.56404,0.34683 -0.34713,3.02028 -1.76114,2.48535 -1.19749,1.126 0.19873,1.83175 1.53233,1.77634 1.71932,1.00842 -1.67553,0.33647 -2.36065,0.51512 -2.57208,-1.12876 -4.88309,0.49735 -6.28625,2.51482 -1.14746,0.0658 -3.56165,-1.0591 -3.28171,1.19612 -0.93782,1.20501 -1.32706,2.62812 -1.977,4.00169 -2.23533,-1.34406 -1.63024,4.29628 -3.64764,1.85067 -0.6739,-1.12803 -2.92833,-0.72946 -1.0984,-2.05795 0.41269,-1.28714 -1.76299,0.33061 -2.18932,-1.15473 -0.88869,-0.99716 2.0868,-3.07669 -0.58723,-3.70046 -2.37633,-0.99877 -1.78047,3.3357 -3.96853,3.07541 -0.69465,1.08806 0.71238,2.67966 -1.03373,3.37989 -0.29751,1.45114 -0.42624,2.6806 -0.92694,4.11445 1.41833,1.43098 2.03025,-1.32377 3.20782,-1.82412 -0.48931,-0.89062 0.88112,-3.61567 0.49165,-1.28372 -0.46312,2.00161 0.23715,3.0828 2.30196,2.30089 0.26176,0.86688 -1.9074,2.31275 0.083,2.28152 1.38222,-1.25829 -0.0252,1.15536 -0.86947,1.19332 1.27657,1.36435 2.86265,-0.4852 3.40899,-1.58499 0.89051,0.58119 3.36501,2.64289 1.01726,2.80474 0.11316,1.58926 3.21563,-0.0831 1.61913,1.61293 -1.3273,0.89331 1.39539,0.0943 1.25554,1.23586 2.24064,-0.18227 1.35027,-4.11252 3.92701,-3.99122 1.73095,-0.0913 0.28449,3.2272 2.74833,3.03517 1.3228,0.32201 1.2265,-0.7141 1.42738,-1.75006 1.11223,0.85368 1.07007,4.00775 3.16259,2.26559 0.29135,-1.13217 1.43385,-1.9387 1.71785,-0.29491 1.84329,0.62217 3.296,-2.02431 5.17458,-1.60202 1.59501,0.14134 2.64618,-4.39904 3.52593,-1.45389 2.21663,1.40956 -1.83204,2.48437 -0.78059,4.24671 1.58243,0.53227 2.43013,-1.30978 2.03051,-2.19803 1.00928,0.11404 2.97382,0.35863 1.12468,1.26732 -0.60343,1.91283 2.67942,3.1207 3.71495,2.88316 1.41294,-1.41668 3.18486,0.0301 4.32665,0.41804 0.67233,-0.82358 0.68891,-3.21214 1.54669,-1.07386 1.3027,1.29313 4.12007,-0.68323 3.09445,-2.42417 1.02697,-1.53833 2.05519,-2.8882 2.01637,-4.82851 0.74733,-2.08277 3.30713,-3.36833 3.1303,-5.78089 -1.16623,-1.22891 -2.45128,-2.64956 -4.07987,-1.08899 -1.45508,-1.01881 -2.30524,-3.02011 -4.33538,-2.47174 0.44701,-1.50234 -1.62334,-1.71395 -1.00217,-3.44077 -0.39007,-2.21228 -0.59313,-4.49451 -2.07166,-6.17967 -1.28247,-0.38232 -2.78702,-0.82165 -2.02015,-2.10174 -0.75748,-1.08681 -0.41381,-4.65408 -2.55886,-3.3823 -0.48605,1.16244 -1.67151,0.84252 -1.21449,-0.21404 -1.88767,-1.07884 -3.75418,-2.92282 -6.11261,-2.38754 -1.77284,0.55645 -4.61764,0.16975 -5.91834,0.48321 -0.57922,1.36302 -0.93897,-0.35925 -1.35718,-0.74121 z m -64.34375,-41.18745 -0.875,0.1875 -0.8125,0.5 -0.5,0.0625 -0.4375,0 -0.4375,0.1875 -0.34375,0.40625 -0.0937,0.6875 0.25,0.5625 0.34375,0.25 0.15625,0.0937 0.28125,-0.0937 0.25,-0.34375 0.375,-0.5 0.15625,-0.1875 0.34375,0 0.15625,0.46875 -0.25,0.6875 -0.28125,0.59375 -0.625,1.03125 -0.53125,0.96875 -0.25,0.25 -0.125,0.34375 0.1875,0.46875 0.34375,0.34375 0.4375,0.15625 0.4375,0.375 0.34375,0.4375 0.15625,0.59375 0.25,0.375 0.1875,0.1875 0.34375,0.0625 0.34375,0.1875 0.15625,0.25 0.34375,0.375 0,0.4375 -0.0937,0.53125 0.0937,0.1875 0.25,0.6875 0.34375,0.4375 0.59375,1.25 0.25,0.5 -0.1875,0.5625 0.15625,0.59375 0.53125,0.6875 0.6875,0.96875 0.15625,0.28125 0.3125,0.34375 0.6875,0.90625 0.28125,0.6875 -0.0937,0.34375 -0.28125,0.1875 -0.25,0 -0.6875,0.0625 -0.0937,0.25 -0.0937,0.34375 0.34375,0.5625 0.6875,0.4375 0.59375,0.15625 0.4375,0.0312 0.1875,-0.25 0.1875,-0.625 0,-1.03125 0,-0.90625 0.21875,-0.34375 0.15625,-0.15625 0.34375,0.0937 0.53125,0.0937 0.34375,0 0.25,-0.34375 0.375,-0.59375 0.0937,-0.375 0.34375,-0.25 0.4375,0.0312 0.25,0.15625 0.28125,-0.25 0.15625,-0.6875 0.375,-0.34375 0.625,-0.53125 0.0625,-0.59375 -0.125,-0.71875 -0.28125,-0.34375 -0.4375,-0.4375 -0.34375,-0.8125 -0.21875,-0.6875 -0.28125,-0.78125 -0.34375,-0.71875 -0.125,-0.625 -0.0937,-0.875 -0.15625,-0.78125 0.0937,-0.875 -0.3125,-1.40625 -0.4375,-0.96875 -0.34375,-0.78125 -0.40625,-1.21875 -0.6875,-0.71875 -0.6875,-0.625 -1.125,-0.625 -1.375,-0.28125 -1.40625,-0.0312 -1.03125,-0.1875 z m -3.09375,-39.90625 -0.59375,0.15625 -0.53125,0.15625 -0.71875,0.625 -0.53125,0.5 -0.4375,0.71875 -0.4375,0.84375 -0.53125,1.21875 -0.46875,1.0625 -0.96875,0.5 -0.96875,1.03125 -0.78125,0.6875 -0.71875,0.4375 -1.03125,0.5 -1.25,0.40625 -0.25,0.34375 -0.28125,0.4375 -0.15625,0.71875 -0.0312,0.78125 0.25,0.78125 0.4375,0.8125 0.59375,0.6875 0.5,0.71875 0.53125,0.4375 0.4375,0.28125 0.0937,0.25 0.15625,0.1875 0.34375,0 0.15625,-0.1875 0.28125,-0.25 0.25,0.1875 0.34375,0.1875 0.1875,-0.0937 -0.0937,-0.25 -0.5625,-0.90625 -0.53125,-1.0625 0.0937,-0.40625 0.1875,-0.0937 0.34375,0.0937 0.84375,1.125 0.40625,0.96875 0.1875,0.71875 0.0625,1.21875 0.15625,1.15625 0.15625,0.78125 0.25,0.875 0.34375,0.71875 0.15625,0.59375 0.34375,0.875 0.1875,0.28125 0.0625,0.78125 0.0937,0.53125 -0.125,0.34375 0.0937,0.53125 0.25,0.34375 0.0937,0.34375 0,0.4375 0.25,1.0625 0.25,0.8125 0.25,0.5 0.9375,0.71875 0.6875,0.34375 0.5,0.5625 0.53125,0.78125 0.40625,0.34375 0.6875,0.5625 0.78125,0.59375 0.4375,0.28125 0.25,0.28125 0.0937,0.25 0.25,0.15625 0.4375,0.0312 0.53125,-0.25 0.25,0.0937 0.25,0.34375 -0.0625,0.25 -0.21875,0.4375 -0.15625,0.78125 -0.0937,0.53125 -0.1875,0.78125 0,0.53125 0.0625,0.8125 0.25,0.5 0.0937,0.34375 0,0.1875 0.0937,0.34375 0.25,0.0937 0.5,0.0937 0.0937,0.34375 0.4375,0.28125 0.84375,0.28125 0.875,0.15625 0.96875,0.125 0.4375,0 0.59375,0.1875 0.4375,0.53125 0.40625,0.34375 0.8125,0.125 0.6875,-0.0937 0.34375,-0.15625 0.34375,-0.375 0.125,-0.25 -2.65625,-5.1875 -0.40625,-0.53125 -0.34375,-0.625 -0.4375,-0.875 -0.0625,-0.625 -0.0937,-0.4375 -0.25,0 -0.0937,0.1875 0,0.53125 0.0625,0.4375 0.0937,0.25 0,0.25 -0.0937,0.1875 -0.1875,0 -0.34375,-0.0937 -0.25,-0.4375 -0.15625,-0.34375 0,-0.53125 0.0937,-0.6875 0,-0.4375 -0.15625,-0.5625 -0.34375,-0.25 -0.15625,-0.53125 0,-0.40625 -0.0937,-0.625 -0.25,-0.71875 -0.34375,-0.4375 -0.5,-0.46875 -0.6875,-0.15625 -0.34375,-0.34375 -0.4375,-0.625 -0.15625,-0.53125 -0.34375,-0.625 -0.34375,-0.25 -0.53125,-0.4375 -0.5,-0.375 -0.25,-0.46875 -0.0937,-0.59375 0.28125,-0.53125 0.15625,-0.15625 0.0937,-0.1875 0,-0.25 -0.25,-0.4375 -0.0625,-0.1875 -0.1875,-0.34375 0.125,-0.59375 0.5,-1.0625 0.28125,-1.03125 0.1875,-1.0625 0.65625,-1.5625 0.5,-0.875 0.71875,-0.5 0.96875,-0.34375 0.625,-0.34375 0.59375,-0.15625 0.1875,-0.34375 0.0937,-1.125 0.125,-1.21875 0.15625,-1.40625 0.28125,-1.15625 0.5625,-1.3125 0.28125,-1.03125 0.25,-0.4375 0.4375,-0.40625 0.625,-0.4375 0.96875,-0.40625 0,-0.625 -0.34375,-0.53125 -0.40625,-0.71875 -0.6875,-0.34375 -1.0625,-0.375 -0.9375,0.0937 -0.53125,0.15625 -1.0625,0.5 -1.21875,0.15625 -1.21875,0.0937 -1.03125,-0.3125 -0.34375,-0.0937 -0.4375,-0.15625 -0.78125,-0.5625 -0.0625,-0.40625 -0.28125,-0.375 -0.6875,0 z m -326.40625,-7.28125 -0.4375,0.0937 -0.34375,0.25 -0.71875,0.6875 -1.25,1.375 -0.59375,0.4375 -0.375,0.0937 -0.15625,0.25 0.15625,0.25 0.25,0.71875 0.15625,0.53125 0.15625,0.875 0.0625,0.6875 0,0.875 0,0.0937 0.0625,0.625 0.15625,1.125 0.34375,1.15625 0,0.5 0.3125,0.75 0.34375,0.15625 0.4375,0.0937 0.53125,0.28125 0.15625,0.34375 0.0625,0.625 -0.1875,0.78125 -0.0937,0.84375 0.0625,1.0625 -0.0312,1.25 -0.1875,1.375 -0.28125,1.03125 -0.0312,0.625 0.1875,0.53125 0.5,0.53125 0.4375,0.28125 0.5,0.15625 0.6875,-0.0625 0.53125,-0.15625 0.46875,-0.625 0.25,-0.59375 0.1875,-0.78125 0.1875,-0.6875 0.28125,-0.6875 0.34375,-0.1875 0.53125,-0.15625 0.8125,-0.15625 0.40625,-0.25 0.625,0 0.34375,0.28125 -0.0312,0.4375 -0.25,0.25 -0.28125,0.25 -0.25,0.625 -0.28125,0.0937 -0.25,0.125 -0.28125,0.375 0.0937,0.25 0.34375,0.625 0.25,0.375 0.34375,0.5 0.5,0 0.71875,0.0312 1.03125,-0.6875 0.71875,-1.09375 0.625,-0.53125 0.4375,-0.6875 0.28125,-0.78125 0.125,-1.125 -0.15625,-0.96875 -0.0625,-0.875 -0.0937,-0.71875 -0.25,-0.4375 -0.25,-0.1875 -0.34375,0.1875 -0.1875,0.53125 -0.625,0.5 -0.1875,0.25 -0.25,0.875 -0.1875,0.53125 -0.1875,0.25 -0.34375,0.0937 -0.625,-0.28125 -0.5,-0.53125 -0.4375,-0.1875 -0.53125,-0.4375 -0.0625,-0.5625 0.125,-0.6875 0.34375,-0.875 0.375,-0.59375 0.625,-1.375 0.625,-1.21875 0.40625,-2.28125 0,-0.0937 0.21875,-1.8125 -0.28125,-0.625 -0.90625,-1.3125 -0.59375,-0.90625 -0.34375,-0.28125 -0.25,-0.59375 -0.5,-1.15625 -0.4375,-0.4375 -0.34375,-0.0312 -0.34375,0.1875 -0.53125,0.4375 -0.6875,0.15625 -0.625,0 -0.5,-0.28125 -0.4375,-0.375 -0.34375,-0.1875 z M -130.5,-458.3125 c -8.9556,3.65509 -13.06092,13.85513 -22.6875,15.8125 -3.56013,5.87697 -12.39567,5.54918 -12.4062,14.59375 -1.8005,5.8428 -10.45911,14.47575 -15.0937,10 -6.17974,6.21684 -13.54213,-3.26223 -17.32041,4.60919 -6.41031,7.01651 -13.03094,14.37333 -22.77915,17.23298 -8.79309,6.79356 -20.4089,6.00695 -29.99414,5.47038 -7.46151,5.19872 -13.92976,-0.56235 -21.875,0.25 -16.66268,-0.8867 -25.03406,15.00244 -37.28125,22.78125 -10.7402,10.48988 -28.22245,7.18075 -40.83886,14.81411 -5.86686,-0.9593 -14.05078,3.8088 -16.81739,8.15459 1.38172,6.73413 8.24367,4.2472 11.28125,1.8125 4.42042,2.10702 -1.67645,9.2633 5.28125,6.6251 1.98836,0.15024 1.35951,5.58408 6.0936,3.12495 4.51943,0.80683 4.68681,7.75828 7.25005,11.0625 2.15313,6.09808 4.37206,13.42571 6.1563,20.12495 2.56364,6.95166 16.74754,6.33187 23.35965,10.52059 37.94396,13.64461 77.17475,24.4706 114.27167,39.9956 11.34173,6.38208 21.75773,15.81088 32.89998,21.23356 1.10241,-3.67743 3.59257,-1.086 2.96865,1.31255 2.0108,-0.0391 5.82021,-3.17666 8.0937,-0.0939 -1.22903,2.51511 7.0497,-1.07831 6.87505,3.96875 -0.92506,4.051 9.18077,4.46334 7.4998,-1.1876 1.54117,-3.22798 4.00343,1.66829 7.4375,-0.875 3.73333,-0.76286 7.42007,-0.90804 7.84375,3.8125 2.74038,2.10448 4.9261,-3.00977 7.28125,1.84365 2.83711,3.40322 6.53088,0.75643 9.125,0.46865 4.146931,1.45976 4.709814,6.62911 8.8125,5.8752 3.223371,3.34365 7.203305,-3.27569 9.5,2.3751 4.115174,0.0872 6.743381,-0.71868 10.5939,2.5002 1.80632,3.27759 9.631206,3.14194 5.9375,7.3124 0.966641,5.08429 6.834102,6.25305 -0.21875,10.37495 -5.400851,3.51669 -4.673934,7.96095 0.8125,10.87495 4.20494,5.9198 12.685716,-4.57717 14.6875,2.0938 -2.236074,4.89055 6.964703,4.86243 10.34375,5.15595 6.229945,-0.0798 5.491244,8.84745 12.15625,9.4373 1.087824,3.72 6.540008,7.50846 -0.71875,8.5311 -4.889272,1.9549 1.867036,7.79461 3.71875,10.37495 0.584193,3.76645 -0.87596,11.92648 -6.1875,8.126 -2.886868,2.24792 4.717006,4.59514 2.59375,8.59375 0.374919,3.40571 4.996936,6.17584 -0.125,7.71865 -1.900008,5.55995 -11.338889,7.73085 -7.0625,14.75 -1.136583,3.30346 -5.151476,6.18445 -4.75,9.74995 2.530654,-0.514551 1.139683,-4.45089 3.0625,0.125 2.029526,4.042629 4.345767,-1.061135 8.1875,0.09385 6.482732,3.66773 9.51594,-3.71813 14.78125,-6.21865 7.600879,3.24286 6.223512,12.798198 0.1875,17.18745 -3.348841,6.147392 -4.571187,11.592809 -6.53125,17.1875 -6.179406,7.667611 8.126928,10.053324 7.5625,16.87495 6.29466,6.046608 10.8762937,4.981063 9.40625,-2.8125 1.293243,-7.442917 11.2405665,-11.299734 14.7979017,-19.204601 5.0672113,-6.030176 9.5167533,-12.763468 12.1708483,-18.857899 3.395033,-4.650859 6.447571,-10.86275 11.375,-15.53125 -0.714091,-8.48292 8.021261,-15.57343 9.8125,-24.34375 6.235329,-8.99663 10.181187,-23.07873 22.84375,-25.15625 8.34974,-6.64726 -1.66852,-1.31616 2.9375,-4.06255 -1.974942,-1.44397 8.559141,-7.14759 3.3125,-7.59375 -2.121786,-4.26518 -1.100963,-7.71976 0.926935,-13.61563 7.959268,-4.42071 3.670729,-4.75246 6.073065,-9.82187 2.975674,-2.55347 4.250327,-10.11118 6.65625,-7.62495 5.189715,-1.63179 -2.105077,1.35518 0.90625,3.25 2.095033,6.09918 -7.345995,9.79714 -7.40625,14 5.003725,7.26717 1.903256,16.62043 2.21875,24.46875 1.73616,9.14676 5.457504,-2.38972 10.5625,-2.50005 10.21141,2.38077 7.154188,-8.95871 13.53403,-12.23151 -2.5015,-4.24392 8.90844,-5.81665 2.37222,-11.64349 0.0803,-7.29897 7.50274,-6.12873 9.24995,-1.21875 1.04442,0.0565 12.15579,5.23256 11.84786,-2.1602 2.2444,-3.74907 7.80973,-11.57884 12.45733,-5.0152 2.77089,7.44558 -3.52724,11.5571 -6.27409,17.3941 7.55942,6.63973 -7.56829,2.16162 -6.5,2.65635 -0.33695,4.39376 2.66452,3.98525 -2.0625,7.4687 -4.9817,2.95088 -1.63062,10.05883 -9.5938,10.125 -1.31705,5.876 3.74771,10.3749 8.78125,13.49995 9.86503,6.772 0.9025,-3.2413 3.68745,-9.6875 8.1248,4.02734 1.4118,-14.3057 11.2188,-8.06255 3.15739,-2.68281 -0.44964,-5.79021 2.21865,-7.2187 5.02456,-2.5811 8.07541,-1.03963 12.16887,-4.29453 0.522,-6.3509 5.67071,-3.76359 10.20648,-3.83047 0.20764,-4.14148 4.23472,-9.86343 3.4062,-14.09375 0.63675,-7.16406 5.09729,-11.48797 10.0312,-15.34375 5.82876,-1.77103 10.32747,-2.75156 16.65625,-1.5313 9.28026,-5.35903 21.66678,3.5383 29.84365,7.25005 -6.18841,-5.68493 5.03934,-11.15425 10.2501,-8.62505 4.54416,-6.71431 14.78985,4.86572 19.6875,0.34375 6.40115,0.28784 8.05119,-8.90553 12.1562,-13.68755 5.64171,-4.89547 10.94031,-15.97545 19.75,-9.25005 3.67939,-8.37404 8.50613,4.13448 10.9375,0.4375 6.16611,-4.80493 11.7404,6.4792 18.65625,4.5625 3.06697,0.77087 4.90176,4.60117 5.06255,0.2812 5.03647,2.11196 11.50117,6.58908 18.59375,7.87485 9.33657,2.1171 12.61717,13.04372 18.9375,18.75 6.75805,-0.46925 7.02081,9.86174 13.3437,10.34375 2.57181,6.31056 11.08812,5.46047 13.125,1.93745 -3.78443,-1.71454 -5.50381,-10.88545 -1.125,-11.37495 -4.31132,-3.08798 -3.549,-12.26628 2.84375,-10.43745 1.45251,-3.74396 -1.6374,-10.35581 1.96875,-14.625 5.30956,-2.88916 8.1428,4.85583 12.74995,4.2187 3.55715,-4.31722 8.35004,4.99501 6.12495,9 3.85629,5.72078 1.52567,-7.61454 7.0937,-2.7812 1.03704,7.07317 3.49721,1.73613 2.53125,-0.5 -2.17184,-4.74279 4.15282,-1.62474 7.06255,-0.84375 -0.46345,-3.26026 10.24018,8.88923 6.65635,3.6876 -1.23374,-7.04748 8.59064,-3.1267 9.9063,0.84375 0.85079,-2.27018 -4.31737,-5.41906 2.12495,-1.71875 -0.54669,-3.43355 10.833,5.29895 5.125,-0.6249 2.49118,0.40272 8.69067,4.36807 6.6875,1.4999 3.14098,1.27888 8.67953,-2.36447 11.8437,1.81255 6.35993,-1.0161 11.72396,5.78309 14.7812,-0.0315 5.34454,1.43837 7.26978,-4.09492 9.40625,1.6875 2.13912,-3.56595 1.96856,-12.73267 -2.9062,-10.87485 -1.49749,-5.86475 -3.22808,-0.63798 -6.68735,-1.3125 -3.07913,-5.82 -9.89224,-8.56159 -11.90615,-15.2812 1.99681,-4.13377 9.49029,-5.41153 1.24995,-8.3437 -5.82363,1.91289 -6.01076,-5.37731 -9.5625,-6.0938 -0.0251,2.27464 -4.20831,0.56033 -6.1563,-1.3125 0.24047,3.23408 -6.22152,5.87661 -9.59365,1.87495 3.97438,-3.51527 -6.47071,-3.17042 -1.59375,-5.625 -1.60795,-1.81673 3.34443,-2.34161 5.40615,-5.06255 0.20128,-5.67017 6.34147,1.51552 5.2499,-3.34375 -4.07554,-5.8781 -6.54839,-11.86923 -5.65625,-19.65625 -4.84938,-6.91308 -4.35768,-17.58582 -10.7812,-24.125 -3.24507,-7.30166 -10.62673,-2.99678 -14.12495,-1.78125 -6.76742,3.2662 -7.68448,12.43408 -12.5,10.1563 -3.12301,3.51563 -16.6918,7.15517 -11.65615,-0.62505 7.70331,7.81926 -9.49079,-12.02866 -3.5312,-6.875 -9.57842,-7.61179 -19.3719,10.18987 -29.90635,5.12535 -2.40388,-6.10112 -16.96353,-3.97747 -14,-6.1561 -7.10444,5.61608 -20.17752,-7.07966 -10.06255,-11.7188 -0.37758,-14.40849 -4.18516,-32.90656 9.46865,-42.8125 -5.20356,-3.14649 -14.92332,4.80258 -22.32247,0.97204 -23.82106,-3.43277 -41.70003,22.99562 -66.08378,15.49676 -11.50376,1.23018 -22.78395,-0.97109 -34.09375,-2.53125 -7.50846,0.57746 -9.72676,4.59829 -11.7812,2.7812 -1.05126,-2.25053 -14.53291,7.2705 -19.29815,2.32392 -5.65846,-5.78589 -12.55478,7.01896 -18.7331,8.98868 -8.5498,5.50416 -18.67635,12.29775 -27.875,12.34375 -4.55132,7.97208 -12.72511,9.0802 -16.31255,17.5 -2.00453,1.33791 -10.02482,13.53608 -7.46875,3.0313 -7.55543,1.12354 -8.79566,-10.03435 -17.64287,-8.22013 -2.57764,7.92604 -11.971812,11.21729 -15.121115,2.10329 -9.216103,2.22547 -4.697903,-12.64156 -13.017115,-13.16471 -5.378153,0.91744 -11.194802,4.74085 -17.138014,6.9439 -5.890654,-4.27956 -11.326053,3.45829 -19.351064,0.67359 -5.724172,0.17684 -16.307933,-4.75857 -13.885922,-10.99239 1.490613,2.19414 1.312008,-12.42485 -0.5,-7.8749 -7.353689,0.30104 -8.359843,-8.22543 -12.46875,-11.37485 -3.865852,-6.60022 -7.045509,-12.53275 -11.8552549,-19.11013 0.3692079,-4.68517 -3.9439545,-16.66758 -8.5509951,-12.92107 -1.6974757,1.52405 -2.9813984,-11.75384 -4.875,-4.6563 -7.629284,1.51128 -5.632267,-9.27308 -11.90625,-10.15655 -7.141195,-0.91408 -11.833653,-4.85502 -18.90625,-6.1875 -10.008931,2.06656 -18.635431,-5.14476 -28.125,-0.6874 -11.1555,-1.54143 -11.096436,11.56918 -19.71875,16.1876 5.076715,-7.09179 7.552453,-16.46078 16.59375,-20.3125 9.420832,-7.16413 2.008798,-8.82648 -4.625,-2.7187 -7.801536,3.28737 -13.763792,9.87577 -19.96875,15.59375 -2.361453,-5.5147 -9.06308,-0.003 -3.71875,2.875 -6.55831,3.00931 -7.5733,18.47865 -15.31245,14.9063 6.11895,-5.12886 2.26258,-10.00679 3.2187,-18.21875 -0.95298,-10.21096 11.603584,-22.78812 1.96875,-31.09375 -7.41883,-2.76298 1.26397,-15.39048 -7.82399,-18.26733 -10.84342,1.99422 -17.39801,-9.87545 -11.09955,-17.95354 0.79484,-1.95681 -0.65282,-4.96897 -3.04521,-4.43568 z m 90.28125,-44.71875 c -2.32314,0.40167 -9.729466,-0.19424 -8.285445,1.26765 -5.046768,0.78527 -10.904615,0.17288 -15.247659,2.21404 -3.964168,-1.05971 -8.496169,0.55834 -10.313106,4.22531 -5.940189,0.69191 -10.326708,4.53563 -15.733126,6.68996 -5.323131,0.59966 -10.059765,4.55497 -13.052074,8.8491 -4.07526,3.94533 -5.95365,9.78166 -11.18659,12.78278 -3.64524,3.58861 -7.42777,6.23301 -12.33825,7.22116 1.5613,4.78055 -0.87139,9.0577 -2.20798,12.91298 1.03132,3.74753 1.78438,9.93279 7.59488,8.16203 5.29647,0.26894 11.02507,0.85859 11.11305,7.36249 4.23407,0.56326 10.59032,-2.39359 10.777924,-7.5811 1.751935,-5.17593 -4.105584,-3.84841 -5.586964,-0.62057 -3.10698,0.49437 3.12992,-4.57445 3.83104,-6.13188 2.031823,-1.31964 5.400469,-8.43708 4.672319,-2.20083 -3.126013,4.66823 0.802183,10.48425 -3.231187,14.77662 -4.250462,3.67864 -11.349032,6.60282 -8.858572,13.66043 1.68161,1.96819 4.19069,3.11687 4.56602,6.10319 2.83361,-1.6994 -1.99159,6.40533 3.00856,3.0591 2.893048,-4.15931 6.82308,-7.32016 7.575814,-12.66447 -1.59255,-7.32788 8.762917,-6.31506 9.516692,-12.66033 -1.501802,-3.62521 3.61959,-6.78307 5.730944,-3.40979 3.237433,-2.16538 -1.845424,-6.0118 1.105661,-9.38072 1.231609,-5.95598 8.423774,-2.82749 11.417634,-6.7387 2.8511,-3.99659 6.767296,-6.19556 9.641965,-10.01766 2.537218,-4.97679 8.97164,-3.7147 12.410343,-7.67221 2.249815,-2.32086 10.081406,-2.85783 4.81727,-6.79285 -5.15171,-5.5207 4.185583,-7.07597 8.109498,-6.38972 4.052568,-2.0458 7.047645,1.75928 10.360654,1.42419 2.555355,-2.04282 6.045409,0.19388 7.666395,-3.19798 3.8070361,1.37227 6.9678859,0.99743 5.15554,-3.65862 1.1433783,-4.98591 -5.361364,-6.77706 -8.809075,-8.57918 -2.838207,-2.48059 -6.019745,-0.44813 -9.409675,-1.63957 0.999205,3.65785 -5.989251,-0.99344 -8.450722,-0.75369 -2.069954,-0.616 -4.229209,-0.53756 -6.361778,-0.62116 z"
       inkscape:connector-curvature="0" />
  </g>
</svg>
